<svg width="44" height="44" viewBox="0 0 44 44" fill="none" xmlns="http://www.w3.org/2000/svg">
<g clip-path="url(#clip0_156_569)">
<path d="M40.3333 7.35169C38.5 8.25002 36.7033 8.61486 34.8333 9.16669C32.7782 6.84752 29.7312 6.71919 26.8033 7.81552C23.8755 8.91186 21.9578 11.5922 22 14.6667V16.5C16.0508 16.6522 10.7525 13.9425 7.33332 9.16669C7.33332 9.16669 -0.333677 22.7939 14.6667 29.3334C11.2347 31.6195 7.81182 33.1614 3.66666 33C9.73132 36.3055 16.3405 37.4422 22.0623 35.7812C28.6257 33.8745 34.0193 28.9557 36.0892 21.5875C36.7066 19.3466 37.0132 17.0314 37.0003 14.707C36.9967 14.2505 39.7687 9.62502 40.3333 7.34986V7.35169Z" fill="#0F172A" stroke="#CBD5E1" stroke-width="2.75" stroke-linecap="round" stroke-linejoin="round"/>
</g>
<defs>
<clipPath id="clip0_156_569">
<rect width="44" height="44" fill="white"/>
</clipPath>
</defs>
</svg>
